<svg xmlns="http://www.w3.org/2000/svg" xmlns:xlink="http://www.w3.org/1999/xlink" version="1.1" x="0px" y="0px" viewBox="0 0 100 125" style="enable-background:new 0 0 100 100;" xml:space="preserve"><circle cx="32.057" cy="64.846" r="5.057"/><circle cx="67.943" cy="64.846" r="5.057"/><path d="M68.208,30.097H31.792c-8.082,0-14.633,5.883-14.633,13.14v19.86h8.07c0.781-3.046,3.542-5.307,6.828-5.307  s6.047,2.261,6.829,5.307h22.229c0.781-3.046,3.542-5.307,6.829-5.307s6.047,2.261,6.829,5.307h8.07v-19.86  C82.842,35.98,76.29,30.097,68.208,30.097z M31.493,44.604H20.507c0-6.068,4.919-10.987,10.987-10.987V44.604z M42.993,44.604  h-9.202V33.618h9.202V44.604z M54.601,44.604h-9.202V33.618h9.202V44.604z M66.208,44.604h-9.202V33.618h9.202V44.604z   M68.507,44.604V33.618c6.068,0,10.987,4.919,10.987,10.987H68.507z"/><text x="0" y="115" fill="#000000" font-size="5px" font-weight="bold" font-family="'Helvetica Neue', Helvetica, Arial-Unicode, Arial, Sans-serif">Created by Alina Oleynik</text><text x="0" y="120" fill="#000000" font-size="5px" font-weight="bold" font-family="'Helvetica Neue', Helvetica, Arial-Unicode, Arial, Sans-serif">from the Noun Project</text></svg>